Patient4_TMGait_0pt7_02_right_27_EMG.mot
version=1
nRows=20
nColumns=33
inDegrees=no
endheader
time	1LAddLong	2LGlutMax	3LGlutMed	4LIliopsoas	5LSemiMemb	6LBicFemLong	7LRecFem	8LVastMed	9LVastLat	10LGasMed	11LTibAnt	12lTibPost	13LPeroneusLong	14LSol	15LExtDigLong	16LFlexDigLong	17RAddLong	18RGlutMax	19RGlutMed	20RIliopsoas	21RSemiMemb	22RBicFemLong	23RRecFem	24RVastMed	25RVastLat	26RGasMed	27RTibAnt	28RTibPost	29RPeroneusLong	30RSol	31RExtDigLong	32RFlexDigLong
30.2	-0.011597	-0.18494	0.18768	-0.003052	-0.033264	-0.095367	0.031738	0.014038	0.042267	-0.11658	0.011597	0.032501	-1.1118	-0.066833	-0.14114	-0.00885	0.242	0.017395	-0.30563	0.15823	0.11261	0.12802	0.30731	-0.26169	-0.053864	-0.016174	0.74387	-0.00824	0.097809	-0.24689	-0.007019	-0.007172
30.201	-0.008698	-0.15671	0.18753	0.008545	0.069885	-0.093689	0.026855	0.011902	0.039368	-0.12375	0.13718	0.03067	0.15366	0.1329	0.020142	0.029755	0.22659	-0.007477	-0.12192	0.11765	0.093536	0.12375	0.32654	-0.29892	-0.051117	-0.016785	0.26306	-0.004425	0.20096	-0.32944	-0.005035	0.002289
30.202	-0.000763	-0.12802	0.23346	0.000916	0.050354	0.005646	0.039368	0.009155	0.040436	-0.15274	0.12528	0.034332	0.1471	0.2742	0.14877	0.00412	0.18356	0.015564	-0.084534	0.023041	0.066376	0.098877	0.3244	-0.2739	-0.07019	-0.019531	-0.14664	-0.009613	0.11444	-0.26093	-0.002441	0.005798
30.203	0.019531	-0.15762	0.28793	-0.009308	0.048676	0.074463	0.020142	0.004425	0.05127	-0.16464	0.054932	0.027924	0.46585	0.2684	0.19745	0.007019	0.13947	-0.009308	0.087738	-0.03418	0.062561	0.11078	0.35217	-0.18845	-0.045471	-0.044861	-0.62103	-0.008392	-0.099335	-0.068665	-0.002289	-0.015564
30.204	0.024414	-0.12894	0.27069	-0.02533	0.053558	0.11414	0.016022	0.003357	-0.000763	-0.13809	0.031281	0.021667	-0.087128	0.11063	0.026703	-0.004272	0.004272	-0.026855	0.20981	-0.081482	0.055389	0.13718	0.33112	-0.11551	-0.04303	-0.053558	-0.77331	-0.012817	-0.10117	0.098267	-0.005951	-0.014343
30.205	0.012207	-0.12268	0.2739	0.015106	-0.001831	0.09201	0.019379	-0.010681	0.005951	-0.10559	0.008087	0.02594	-0.36865	-0.10025	-0.16541	-0.010071	-0.12756	-0.00946	0.13489	-0.054016	0.063782	0.15411	0.33951	-0.084686	-0.034637	-0.054779	-0.87845	-0.007477	-0.034943	0.22324	-0.004272	-0.00412
30.206	-0.015411	-0.09964	0.17014	-0.003357	-0.026855	0.11398	0.046997	-0.001373	0.013428	-0.14206	-0.009613	0.02594	0.19653	0.012054	-0.18509	-0.016022	-0.15533	0.024109	0.045319	-0.001221	0.068817	0.14297	0.24399	-0.06897	-0.036011	-0.062103	-0.29907	-0.00946	0.17639	0.1561	-0.00473	0
30.207	-0.02655	-0.096893	0.11917	-0.014496	0.015106	0.17777	0.079803	0.010223	-0.001068	-0.13443	-0.004272	0.032043	-0.16998	-0.007935	-0.10269	-0.004425	-0.21179	-0.002899	-0.000916	0.015106	0.035858	0.12329	0.18646	-0.11963	-0.031128	-0.088348	0.063629	-0.005646	0.21362	0.19867	-0.003052	-0.00061
30.208	-0.019684	-0.082245	0.10773	-0.003357	0.04837	0.006104	0.074463	0.003357	0.010071	-0.15976	-0.005188	0.028992	0.054626	-0.16419	0.047607	0.006409	-0.21683	-0.013885	-0.11032	0.018616	0.019226	0.098572	0.25986	-0.14587	-0.028687	-0.078125	-0.14832	-0.009918	0.17151	0.24231	0.00473	0.001984
30.209	0.013428	-0.10147	0.088501	0.030518	0.088348	-0.16602	0.033417	0.000763	0.063934	-0.093384	-0.013428	0.040131	0.070801	-0.22553	0.057983	-0.052795	-0.21835	0.014648	-0.087128	-0.052948	0.026703	0.098267	0.49255	-0.12787	-0.030212	-0.061798	-0.22797	-0.00824	0.083771	0.27771	-0.003662	0.002747
30.21	0.022125	-0.10666	0.014038	0.025024	0.049438	-0.13855	0.062408	0.000305	0.055389	-0.004578	-0.015564	0.0354	-0.33844	-0.19257	0.023193	0.029755	-0.15106	-0.0383	0.010529	-0.20874	0.037231	0.10986	0.36529	-0.14069	-0.042419	-0.039673	-0.10178	-0.011749	0.031433	0.20233	-0.002136	-0.006561
30.211	0.025635	-0.12573	0.038605	0.005951	0.027008	-0.18814	0.07843	-0.006866	0.031738	0.05722	0.005798	0.028687	-0.32455	-0.17746	-0.021667	0.040131	-0.064087	-0.068665	0.069275	-0.2211	0.06134	0.15335	0.087738	-0.12848	-0.067902	-0.023346	-0.020294	-0.000458	0.097809	0.08255	-0.004578	-0.006104
30.212	0.036316	-0.15778	-0.066528	0.011902	0.051117	-0.19318	0.072174	-0.005035	0.003204	0.067291	0.004883	0.033569	-0.15015	-0.054626	-0.064545	-0.1329	-0.010986	-0.035706	-0.1622	-0.15427	0.099945	0.13473	-0.038147	-0.15457	-0.065613	-0.008545	0.038147	-0.006866	0.17303	0.074615	-0.005798	-0.010376
30.213	0.022888	-0.10788	0.12039	-0.009918	0.063477	-0.024261	0.099792	0.005798	-0.041962	0.15732	-0.004425	0.030975	0.041962	0.18066	0.001221	0.18265	0.001068	-0.024414	-0.028381	-0.16327	0.11231	0.13977	-0.11551	-0.079346	-0.027924	-0.00412	-0.12512	-0.00824	0.13168	0.098267	-0.001984	-0.011139
30.214	0.020447	-0.13596	0.23422	0.000763	0.03006	0.11749	0.06012	0.018005	-0.077057	0.24231	-0.028076	0.032349	0.18906	0.40146	0.12528	0.19226	0.046082	0.005798	0.38971	-0.34729	0.14435	0.12909	-0.11795	-0.083771	-0.049896	0.003967	0.19928	-0.009613	0.13489	0.076294	-0.001221	-0.021057
30.215	0.021515	-0.1329	0.086365	0.033264	-0.005035	0.052338	-0.045013	0.031891	-0.068207	0.27893	-0.055084	0.028839	0.34668	0.29724	0.10574	-0.11017	0.10239	-0.082855	0.27756	-0.32867	0.14114	0.103	-0.065613	-0.069733	-0.070343	0.010529	0.3447	-0.001373	-0.10132	-0.046387	0.001526	-0.026245
30.216	0.026855	-0.1033	0.032043	0.020447	0.015106	-0.046844	-0.12421	0.031738	-0.043945	0.2623	-0.049896	0.021362	0.25955	0.011444	-0.015106	-0.10849	0.11337	-0.024719	0.27527	-0.17792	0.11856	0.070496	-0.11017	-0.05661	-0.076141	0.032043	0.44784	0.000458	-0.1648	-0.18509	0.001221	-0.019836
30.217	0.014038	-0.062256	0.17105	0.00473	0.020905	-0.063171	-0.15259	0.031128	0.082397	0.22812	-0.006561	0.030975	0.12726	-0.16586	-0.087128	-0.045929	0.099182	0.001526	0.47989	0.04776	0.09964	0.036926	0.005951	-0.10361	-0.075073	0.04364	0.32425	-0.001068	-0.16495	-0.13626	-0.001678	-0.023804
30.218	0.010681	-0.096283	0.24124	-0.007019	0.031586	0.039673	-0.025177	0.000305	0.22278	0.14038	0.01709	0.037079	0.002441	-0.23682	-0.036316	-0.013123	0.085449	0.046387	0.34714	0.38422	0.10559	0.027771	0.007172	-0.13199	-0.042419	0.036163	0.27268	0.007172	-0.1738	-0.062866	-0.001526	-0.028381
30.219	0.009155	-0.095215	0.1387	-0.023956	0.045013	0.069885	0.078583	-0.006561	0.27283	0.11063	0.066528	0.024261	-0.049286	-0.099945	-0.00473	-0.029602	0.060883	0.019684	0.10193	0.4985	0.082703	0.061493	0.11414	-0.088043	0.006256	0.041504	0.18204	-0.000763	-0.11673	-0.09964	0.001526	-0.03418
